<?xml version="1.0" encoding="utf-8"?>
<!-- Generator: Adobe Illustrator 26.0.1, SVG Export Plug-In . SVG Version: 6.00 Build 0)  -->
<svg version="1.1" id="Layer_1" xmlns="http://www.w3.org/2000/svg" xmlns:xlink="http://www.w3.org/1999/xlink" x="0px" y="0px"
	 viewBox="0 0 108 108" style="enable-background:new 0 0 108 108;" xml:space="preserve">
<style type="text/css">
	.st0{clip-path:url(#SVGID_00000061440397484158810120000001259792482378155447_);}
	.st1{clip-path:url(#SVGID_00000111907645907387509030000003670414497390694571_);fill:#231F20;}
	.st2{clip-path:url(#SVGID_00000111907645907387509030000003670414497390694571_);fill:#FFFFFF;}
	.st3{clip-path:url(#SVGID_00000111907645907387509030000003670414497390694571_);fill:#00843D;}
	.st4{clip-path:url(#SVGID_00000111907645907387509030000003670414497390694571_);fill:#A7A9AC;}
</style>
<g id="Artwork_139_00000067223183615454542790000014993618006765710514_">
	<g>
		<defs>
			<rect id="SVGID_1_" x="5.4" y="11.8" width="95.5" height="88.6"/>
		</defs>
		<clipPath id="SVGID_00000098906850934702190290000016828920935270415030_">
			<use xlink:href="#SVGID_1_"  style="overflow:visible;"/>
		</clipPath>
		<g style="clip-path:url(#SVGID_00000098906850934702190290000016828920935270415030_);">
			<defs>
				<rect id="SVGID_00000116951475622962469610000008877998214824967571_" x="5.4" y="11.8" width="95.5" height="88.6"/>
			</defs>
			<clipPath id="SVGID_00000000203910134175100830000004443891239267504007_">
				<use xlink:href="#SVGID_00000116951475622962469610000008877998214824967571_"  style="overflow:visible;"/>
			</clipPath>
			<path style="clip-path:url(#SVGID_00000000203910134175100830000004443891239267504007_);fill:#231F20;" d="M97.2,47V32.5H64.6
				l-4.8-2l0-18.7H34v32.4H5.4l16.5,16l3.5,9.1l5.8,2.6l-4,6.6h7.9l-8,13.2l23.6-12.6l5.7,12.2l22.1,9.1v-10l0-0.8
				c0-3.4,0-7.2,2.7-9.3l1.3-1c11-8.5,13.3-10.3,13.9-10.8l0.3-0.3l1.2-1.3l3-10.2L97.2,47z"/>
			<path style="clip-path:url(#SVGID_00000000203910134175100830000004443891239267504007_);fill:#FFFFFF;" d="M95,47.4V34.8H64.1
				L57.5,32l0-17.9H36.3v32.4H11l12.9,12.5l3.3,8.7l7.3,3.2l-3.2,5.4h13.9L38,78.2l-4.6,7.7l17.9-9.6H52c1.8,0,3.5-0.1,5-0.2
				l12.1,9.8l-1.1-10.2c-3.3,0.3-6.4,0.1-7.9,0c8.5-1.4,13-5.1,16.1-10.4c2.1-3.6,2.7-6.9,2-9.4c1.2,1.5,1.8,3,2.1,4.9l11.9-6.4
				H77.6c-1.6-2.9-5.1-4.6-10.2-4.6h-1.9L64,35.1l1.9,2.9h25.8v10l3.4,8.9L93,64.2l-0.1,0.1c-0.5,0.5-3.5,2.8-13.8,10.7L77.9,76
				c-3.8,3-4.6,6.6-4.6,14.6v1.7l-12.7-5.1l-4.1-8.6c-0.5,0-1.1,0.1-1.6,0.1H53l5.2,11L76.4,97v-6.6c0-3.8-0.3-8.9,3.5-11.9l1.3-1
				C91.9,69.2,94.4,67.3,95,66.8l0.2-0.1l0.7-0.8l2.7-9L95,47.4z M67.6,59.5c0.4,2.3-1.5,5.7-4.7,7.5c-2.5,1.5-5.6,1.6-8.3,1.6h-8
				l5.8-9.4l-3-2.4h12C65.2,56.8,67.3,57.5,67.6,59.5 M55.2,49.7h-8.1l-2.7,4.6H30l9.7,7.8l-3.6,6l-6.5-2.9l-3.1-8.1L19,49.7h20.5
				V17.3h14.8l0,16.9l8.2,3.5L55.2,49.7z"/>
			<polygon style="clip-path:url(#SVGID_00000000203910134175100830000004443891239267504007_);fill:#00843D;" points="55.2,49.7 
				47.1,49.7 44.4,54.3 30,54.3 39.7,62.1 36.1,68.1 29.7,65.2 26.6,57.1 19,49.7 39.5,49.7 39.5,17.3 54.3,17.3 54.3,34.1 
				62.5,37.6 			"/>
			<path style="clip-path:url(#SVGID_00000000203910134175100830000004443891239267504007_);fill:#A7A9AC;" d="M68.1,75.6l1.1,10.2
				l-5.3-10C65.1,75.8,66.6,75.8,68.1,75.6 M64,35.1l-3.5,14.6h4.9L64,35.1z M42.1,58.1L30,54.3l9.7,7.8L42.1,58.1z M49.5,56.8h12
				c3.5,0,5.5,0.6,6,2.4l5-2.4c-1.4-3.2-5.3-3.5-7.7-3.5H50.5l0,0L39,72.5l7.8-3.8l5.8-9.4L49.5,56.8z M77.7,54.3l-5.1,2.5
				c0.3,0.9,0.8,2.9-0.5,6c-1.4,3.5-5.7,9.7-17.4,9.7H39l-7.7,3.8h13.9l-1.8,0.5l-9.9,9.1l17.9-9.6H52c1.8,0,3.5-0.1,5-0.2l3.1-0.4
				c8.5-1.4,13-5.1,16.1-10.4c2.1-3.6,2.7-6.9,2-9.4C78.3,55.8,78,55,77.7,54.3 M79.4,57.5c0.5,1,0.8,2,1,3.2l11.9-6.4L79.4,57.5z"
				/>
			<path style="clip-path:url(#SVGID_00000000203910134175100830000004443891239267504007_);fill:#A7A9AC;" d="M98.5,56.8l-2.7,9
				l-0.7,0.8L95,66.8c-0.6,0.5-3.1,2.5-13.8,10.8l-1.3,1c-3.8,3-3.5,8.1-3.5,11.9V97l-18.2-7.5l2.5-2.4l12.7,5.1v-1.7
				c0-8,0.8-11.6,4.6-14.6l1.2-0.9c10.3-7.9,13.3-10.3,13.8-10.7l0.1-0.1l2.2-7.3L91.8,48V38l3.2-3.2v12.6L98.5,56.8z M54.3,17.3
				l0,16.9l3.2-2.1l0-17.9L54.3,17.3z M27.2,67.6l7.3,3.2l1.7-2.8l-6.5-2.9L27.2,67.6z M11,46.5l12.9,12.5l2.7-1.9L19,49.7L11,46.5z
				"/>
		</g>
	</g>
</g>
</svg>
